<svg width="26" height="23" viewBox="0 0 26 23" fill="none" xmlns="http://www.w3.org/2000/svg">
<path d="M12.6136 18.2898C14.1903 18.2898 15.5307 17.7381 16.6349 16.6349C17.739 15.5316 18.2906 14.1912 18.2898 12.6136C18.2889 11.0361 17.7373 9.6961 16.6349 8.59367C15.5324 7.49124 14.192 6.93918 12.6136 6.9375C11.0352 6.93582 9.69526 7.48787 8.59367 8.59367C7.49208 9.69947 6.94002 11.0395 6.9375 12.6136C6.93498 14.1878 7.48703 15.5282 8.59367 16.6349C9.70031 17.7415 11.0403 18.2931 12.6136 18.2898ZM12.6136 15.767C11.7307 15.767 10.9844 15.4622 10.3747 14.8526C9.76506 14.2429 9.46023 13.4966 9.46023 12.6136C9.46023 11.7307 9.76506 10.9844 10.3747 10.3747C10.9844 9.76506 11.7307 9.46023 12.6136 9.46023C13.4966 9.46023 14.2429 9.76506 14.8526 10.3747C15.4622 10.9844 15.767 11.7307 15.767 12.6136C15.767 13.4966 15.4622 14.2429 14.8526 14.8526C14.2429 15.4622 13.4966 15.767 12.6136 15.767ZM2.52273 22.7045C1.82898 22.7045 1.2353 22.4577 0.741682 21.9641C0.248068 21.4705 0.000840909 20.8764 0 20.1818V5.04545C0 4.3517 0.247227 3.75802 0.741682 3.26441C1.23614 2.7708 1.82982 2.52357 2.52273 2.52273H6.49602L8.82955 0H16.3977L18.7313 2.52273H22.7045C23.3983 2.52273 23.9924 2.76995 24.4869 3.26441C24.9813 3.75886 25.2281 4.35255 25.2273 5.04545V20.1818C25.2273 20.8756 24.9805 21.4697 24.4869 21.9641C23.9932 22.4586 23.3991 22.7054 22.7045 22.7045H2.52273Z" fill="#487790"/>
</svg>
