<svg width="29" height="26" viewBox="0 0 29 26" fill="none" xmlns="http://www.w3.org/2000/svg">
<path d="M18.6136 18.6136H24.3409V12.8864H22.1932V16.4659H18.6136V18.6136ZM4.29545 10.0227H6.44318V6.44318H10.0227V4.29545H4.29545V10.0227ZM8.59091 25.7727V22.9091H2.86364C2.07614 22.9091 1.40223 22.6289 0.841909 22.0686C0.281591 21.5083 0.000954545 20.8339 0 20.0455V2.86364C0 2.07614 0.280636 1.40223 0.841909 0.841909C1.40318 0.281591 2.07709 0.000954546 2.86364 0H25.7727C26.5602 0 27.2346 0.280636 27.7959 0.841909C28.3572 1.40318 28.6373 2.07709 28.6364 2.86364V20.0455C28.6364 20.833 28.3562 21.5073 27.7959 22.0686C27.2356 22.6299 26.5612 22.91 25.7727 22.9091H20.0455V25.7727H8.59091Z" fill="#487790"/>
</svg>
