<svg width="29" height="31" viewBox="0 0 29 31" fill="none" xmlns="http://www.w3.org/2000/svg">
<path d="M27.7025 29.7402H1.35815" stroke="#B5BEC7" stroke-width="1.40503" stroke-miterlimit="10" stroke-linecap="round"/>
<path d="M1.35815 19.062L5.47958 25.9935H19.1552L21.9653 29.7402" stroke="#B5BEC7" stroke-width="1.40503" stroke-miterlimit="10" stroke-linecap="round"/>
<path d="M5.47966 25.9935L3.69995 29.7402" stroke="#B5BEC7" stroke-width="1.40503" stroke-miterlimit="10" stroke-linecap="round"/>
<path d="M3.6062 22.9967H8.28964C9.32431 22.9967 10.163 23.8354 10.163 24.8701V25.9941" stroke="#B5BEC7" stroke-width="1.40503" stroke-miterlimit="10" stroke-linecap="round"/>
<path d="M18.0312 11.9434C18.0312 5.73555 15.7246 0.703097 12.8794 0.703097C10.0343 0.703097 7.72766 5.73555 7.72766 11.9434" stroke="#B5BEC7" stroke-width="1.40503" stroke-miterlimit="10" stroke-linecap="round"/>
<path d="M0.702515 11.9434V11.8731C0.702515 6.05337 6.15432 0.703096 12.8795 0.703096C19.6046 0.703096 25.0564 6.05327 25.0564 11.8731V11.9434C25.0564 10.8053 23.4837 9.88264 21.5438 9.88264C19.604 9.88264 18.0313 10.8053 18.0313 11.9434C18.0313 10.7363 15.7247 9.32063 12.8795 9.32063C10.0343 9.32063 7.72768 10.7363 7.72768 11.9434C7.72768 10.8053 6.15498 9.88264 4.2151 9.88264C2.27521 9.88264 0.702515 10.8053 0.702515 11.9434Z" stroke="#B5BEC7" stroke-width="1.40503" stroke-miterlimit="10" stroke-linecap="round"/>
<path d="M12.8795 23.3711V9.32076" stroke="#B5BEC7" stroke-width="1.40503" stroke-miterlimit="10" stroke-linecap="round" stroke-dasharray="1.41 1.41 56.2 1.41"/>
</svg>
