<svg width="22" height="22" viewBox="0 0 22 22" fill="none" xmlns="http://www.w3.org/2000/svg">
<path d="M10.6576 3.542C10.9906 3.542 11.3099 3.40974 11.5453 3.17431C11.7807 2.93888 11.913 2.61957 11.913 2.28663C11.913 1.95368 11.7807 1.63437 11.5453 1.39894C11.3099 1.16351 10.9906 1.03125 10.6576 1.03125C10.3247 1.03125 10.0054 1.16351 9.76994 1.39894C9.53451 1.63437 9.40225 1.95368 9.40225 2.28663C9.40225 2.61957 9.53451 2.93888 9.76994 3.17431C10.0054 3.40974 10.3247 3.542 10.6576 3.542ZM19.0286 3.542C19.1935 3.542 19.3567 3.50953 19.509 3.44644C19.6613 3.38335 19.7997 3.29088 19.9163 3.17431C20.0329 3.05774 20.1254 2.91935 20.1884 2.76704C20.2515 2.61473 20.284 2.45148 20.284 2.28663C20.284 2.12177 20.2515 1.95852 20.1884 1.80621C20.1254 1.6539 20.0329 1.51551 19.9163 1.39894C19.7997 1.28237 19.6613 1.1899 19.509 1.12681C19.3567 1.06372 19.1935 1.03125 19.0286 1.03125C18.6957 1.03125 18.3764 1.16351 18.1409 1.39894C17.9055 1.63437 17.7732 1.95368 17.7732 2.28663C17.7732 2.61957 17.9055 2.93888 18.1409 3.17431C18.3764 3.40974 18.6957 3.542 19.0286 3.542ZM2.28663 3.542C2.45148 3.542 2.61473 3.50953 2.76704 3.44644C2.91935 3.38335 3.05774 3.29088 3.17431 3.17431C3.29088 3.05774 3.38335 2.91935 3.44644 2.76704C3.50953 2.61473 3.542 2.45148 3.542 2.28663C3.542 2.12177 3.50953 1.95852 3.44644 1.80621C3.38335 1.6539 3.29088 1.51551 3.17431 1.39894C3.05774 1.28237 2.91935 1.1899 2.76704 1.12681C2.61473 1.06372 2.45148 1.03125 2.28663 1.03125C1.95368 1.03125 1.63437 1.16351 1.39894 1.39894C1.16351 1.63437 1.03125 1.95368 1.03125 2.28663C1.03125 2.61957 1.16351 2.93888 1.39894 3.17431C1.63437 3.40974 1.95368 3.542 2.28663 3.542ZM10.6576 11.9116C10.9906 11.9116 11.3099 11.7794 11.5453 11.5439C11.7807 11.3085 11.913 10.9892 11.913 10.6562C11.913 10.3233 11.7807 10.004 11.5453 9.76857C11.3099 9.53314 10.9906 9.40087 10.6576 9.40087C10.3247 9.40087 10.0054 9.53314 9.76994 9.76857C9.53451 10.004 9.40225 10.3233 9.40225 10.6562C9.40225 10.9892 9.53451 11.3085 9.76994 11.5439C10.0054 11.7794 10.3247 11.9116 10.6576 11.9116ZM19.0286 11.9116C19.3616 11.9116 19.6809 11.7794 19.9163 11.5439C20.1517 11.3085 20.284 10.9892 20.284 10.6562C20.284 10.3233 20.1517 10.004 19.9163 9.76857C19.6809 9.53314 19.3616 9.40087 19.0286 9.40087C18.6957 9.40087 18.3764 9.53314 18.1409 9.76857C17.9055 10.004 17.7732 10.3233 17.7732 10.6562C17.7732 10.9892 17.9055 11.3085 18.1409 11.5439C18.3764 11.7794 18.6957 11.9116 19.0286 11.9116ZM2.28663 11.9116C2.61957 11.9116 2.93888 11.7794 3.17431 11.5439C3.40974 11.3085 3.542 10.9892 3.542 10.6562C3.542 10.3233 3.40974 10.004 3.17431 9.76857C2.93888 9.53314 2.61957 9.40087 2.28663 9.40087C1.95368 9.40087 1.63437 9.53314 1.39894 9.76857C1.16351 10.004 1.03125 10.3233 1.03125 10.6562C1.03125 10.9892 1.16351 11.3085 1.39894 11.5439C1.63437 11.7794 1.95368 11.9116 2.28663 11.9116ZM10.6576 20.2812C10.9906 20.2812 11.3099 20.149 11.5453 19.9136C11.7807 19.6781 11.913 19.3588 11.913 19.0259C11.913 18.6929 11.7807 18.3736 11.5453 18.1382C11.3099 17.9028 10.9906 17.7705 10.6576 17.7705C10.3247 17.7705 10.0054 17.9028 9.76994 18.1382C9.53451 18.3736 9.40225 18.6929 9.40225 19.0259C9.40225 19.3588 9.53451 19.6781 9.76994 19.9136C10.0054 20.149 10.3247 20.2812 10.6576 20.2812ZM19.0286 20.2812C19.3616 20.2812 19.6809 20.149 19.9163 19.9136C20.1517 19.6781 20.284 19.3588 20.284 19.0259C20.284 18.6929 20.1517 18.3736 19.9163 18.1382C19.6809 17.9028 19.3616 17.7705 19.0286 17.7705C18.6957 17.7705 18.3764 17.9028 18.1409 18.1382C17.9055 18.3736 17.7732 18.6929 17.7732 19.0259C17.7732 19.3588 17.9055 19.6781 18.1409 19.9136C18.3764 20.149 18.6957 20.2812 19.0286 20.2812ZM2.28663 20.2812C2.61957 20.2812 2.93888 20.149 3.17431 19.9136C3.40974 19.6781 3.542 19.3588 3.542 19.0259C3.542 18.6929 3.40974 18.3736 3.17431 18.1382C2.93888 17.9028 2.61957 17.7705 2.28663 17.7705C1.95368 17.7705 1.63437 17.9028 1.39894 18.1382C1.16351 18.3736 1.03125 18.6929 1.03125 19.0259C1.03125 19.3588 1.16351 19.6781 1.39894 19.9136C1.63437 20.149 1.95368 20.2812 2.28663 20.2812Z" stroke="#0F2948" stroke-width="2.0625" stroke-linecap="round" stroke-linejoin="round"/>
</svg>
