<svg width="27" height="37" viewBox="0 0 27 37" fill="none" xmlns="http://www.w3.org/2000/svg">
<path d="M13.3008 36.834C12.6295 36.834 11.9858 36.5673 11.5111 36.0927C11.0365 35.618 10.7698 34.9743 10.7698 34.303L10.7698 21.3409L10.7698 8.37867L4.35137 14.7971C4.1179 15.0389 3.83862 15.2317 3.52984 15.3643C3.22105 15.497 2.88894 15.5668 2.55289 15.5697C2.21683 15.5726 1.88356 15.5086 1.57252 15.3813C1.26148 15.2541 0.978891 15.0661 0.741255 14.8285C0.503618 14.5909 0.315683 14.3083 0.188427 13.9972C0.0611686 13.6862 -0.00286498 13.3529 5.51383e-05 13.0169C0.00297526 12.6808 0.0727937 12.3487 0.205438 12.0399C0.338083 11.7311 0.530889 11.4518 0.772621 11.2184L11.0634 0.927591C11.3572 0.633726 11.706 0.400613 12.0899 0.241575C12.4738 0.0825322 12.8852 0.000680215 13.3008 0.000680179C13.7163 0.000680143 14.1277 0.0825321 14.5116 0.241574C14.8955 0.400613 15.2443 0.633725 15.5381 0.92759L25.8289 11.2184C26.0706 11.4518 26.2634 11.7311 26.3961 12.0399C26.5287 12.3487 26.5985 12.6808 26.6015 13.0169C26.6044 13.3529 26.5403 13.6862 26.4131 13.9972C26.2858 14.3083 26.0979 14.5909 25.8603 14.8285C25.6226 15.0661 25.34 15.2541 25.029 15.3813C24.718 15.5086 24.3847 15.5726 24.0486 15.5697C23.7126 15.5668 23.3805 15.4969 23.0717 15.3643C22.7629 15.2317 22.4836 15.0389 22.2502 14.7971L15.8317 8.37867L15.8317 34.303C15.8317 34.9743 15.565 35.618 15.0904 36.0927C14.6158 36.5673 13.972 36.834 13.3008 36.834Z" fill="#0F2948"/>
</svg>
