<svg width="20" height="28" viewBox="0 0 20 28" fill="none" xmlns="http://www.w3.org/2000/svg">
<path d="M18.709 0.125C19.2794 0.125 19.7422 0.587789 19.7422 1.1582V25.9717C19.7422 26.5421 19.2794 27.0049 18.709 27.0049C14.3335 26.999 5.53301 27.0092 1.1582 27.0049C0.587791 27.0049 0.125 26.5421 0.125 25.9717C0.126843 18.6056 0.123672 8.52378 0.125 1.1582C0.125 0.587788 0.587774 0.125 1.1582 0.125H18.709ZM10.6641 25.5439H18.2822V18.5312H10.6641V25.5439ZM1.58594 25.5439H9.20312V18.5312H1.58594V25.5439ZM10.6641 17.0713H18.2822V1.58496H10.6641V17.0713ZM1.58594 17.0713H9.20312V1.58496H1.58594V17.0713Z" fill="#B5BEC7" stroke="#B5BEC7" stroke-width="0.25"/>
</svg>
