<svg width="25" height="13" viewBox="0 0 25 13" fill="none" xmlns="http://www.w3.org/2000/svg">
<path d="M22.8319 0.325282L13.1691 9.83547C12.9583 10.044 12.6737 10.161 12.3771 10.161C12.0805 10.161 11.7959 10.044 11.5851 9.83547L1.92024 0.327344C1.7081 0.118876 1.42258 0.00206333 1.12515 0.00206333C0.827724 0.00206333 0.542195 0.118876 0.330056 0.327344C0.225594 0.429184 0.142574 0.550905 0.0858885 0.685332C0.0292033 0.819759 0 0.964173 0 1.11006C0 1.25595 0.0292033 1.40037 0.0858885 1.53479C0.142574 1.66922 0.225594 1.79094 0.330056 1.89278L9.99081 11.4009C10.6271 12.0257 11.4833 12.3757 12.3751 12.3757C13.2668 12.3757 14.123 12.0257 14.7593 11.4009L24.4201 1.89278C24.5248 1.79091 24.6081 1.66906 24.665 1.53444C24.7219 1.39983 24.7512 1.25517 24.7512 1.10903C24.7512 0.962893 24.7219 0.818238 24.665 0.683619C24.6081 0.549002 24.5248 0.427154 24.4201 0.325282C24.2079 0.116813 23.9224 0 23.625 0C23.3275 0 23.042 0.116813 22.8299 0.325282" fill="#0F2948"/>
</svg>
