<svg width="33" height="24" viewBox="0 0 33 24" fill="none" xmlns="http://www.w3.org/2000/svg">
<path d="M8.65747 17.9172V22.5422M24.0741 17.9172V22.5422M30.2408 7.53874C29.8901 7.33605 29.5029 7.20446 29.1013 7.15148C28.6997 7.09851 28.2916 7.12518 27.9003 7.22998C27.509 7.33478 27.1422 7.51565 26.8209 7.76226C26.4995 8.00888 26.2299 8.31639 26.0274 8.66724L24.4719 12.3518C24.0865 13.263 24.0433 13.2922 23.052 13.2922H9.67959C8.6883 13.2922 8.64667 13.2645 8.25972 12.3518L6.70263 8.66724C6.29085 7.96484 5.61796 7.45382 4.8308 7.24571C4.04364 7.0376 3.20611 7.14928 2.50099 7.5564C1.79587 7.96351 1.2804 8.633 1.06707 9.41876C0.853743 10.2045 0.959871 11.0428 1.3623 11.7506C2.02676 12.9022 3.87059 12.8051 4.16813 13.7008C4.84646 15.7358 5.18563 16.7533 5.99346 17.3345C6.8013 17.9157 7.8743 17.9172 10.0188 17.9172H22.7128C24.8573 17.9172 25.9303 17.9172 26.7366 17.3345C27.546 16.7533 27.8851 15.7358 28.5635 13.7008C28.861 12.8051 30.7048 12.9022 31.3693 11.7506C31.7782 11.0424 31.889 10.2008 31.6773 9.41095C31.4657 8.62108 30.949 7.94763 30.2408 7.53874Z" stroke="#B5BEC7" stroke-width="1.91879" stroke-linecap="round" stroke-linejoin="round"/>
<path d="M4.80334 7.12565L4.86501 6.96069C5.95343 4.05773 6.49918 2.60548 7.68626 1.78223C8.87489 0.958984 10.4258 0.958984 13.5261 0.958984H19.2056C22.3059 0.958984 23.8568 0.958984 25.0454 1.78223C26.2341 2.60548 26.7783 4.05773 27.8667 6.96223L27.9283 7.12565" stroke="#B5BEC7" stroke-width="1.91879" stroke-linecap="round" stroke-linejoin="round"/>
</svg>
